<?xml version="1.0" encoding="UTF-8" standalone="no"?><!DOCTYPE svg PUBLIC "-//W3C//DTD SVG 1.1//EN" "http://www.w3.org/Graphics/SVG/1.1/DTD/svg11.dtd"><svg width="100%" height="100%" viewBox="0 0 184 184" version="1.1" xmlns="http://www.w3.org/2000/svg" xmlns:xlink="http://www.w3.org/1999/xlink" xml:space="preserve" xmlns:serif="http://www.serif.com/" style="fill-rule:evenodd;clip-rule:evenodd;stroke-linejoin:round;stroke-miterlimit:2;"><path d="M41.667,54.167l0,74.583c0,7.083 5.417,12.5 12.5,12.5l74.583,0c3.333,0 6.667,-1.667 8.75,-3.75c2.083,-2.083 3.75,-5 3.75,-8.75l0,-74.583c0,-7.083 -5.417,-12.5 -12.5,-12.5l-74.583,0c-3.75,0 -6.667,1.667 -8.75,3.75c-2.083,2.083 -3.75,5.417 -3.75,8.75Zm13.333,10c0,-5 3.75,-9.167 8.75,-9.167c5,0 9.167,4.167 9.167,9.167c0,5 -4.167,8.75 -9.167,8.75c-5,0 -8.75,-3.75 -8.75,-8.75Zm24.167,61.667l0,-45.833c0,-1.25 1.25,-2.083 1.667,-2.083l12.917,0c1.667,0 1.667,2.083 1.667,3.333c3.75,-3.75 8.333,-4.583 12.917,-4.583c11.667,0 19.167,5.417 19.167,17.917l0,30.833c0,1.25 -0.833,2.083 -1.667,2.083l-13.333,0c-1.25,0 -1.667,-1.25 -1.667,-2.083l0,-27.917c0,-4.583 -1.25,-7.083 -6.667,-7.083c-5.417,0 -8.333,4.167 -8.333,10.417l0,25c0,1.25 -1.25,2.083 -2.083,2.083l-12.917,0c-0.833,0 -1.667,-1.25 -1.667,-2.083Zm-23.75,-0l0,-45.833c0,-1.25 1.25,-2.083 1.667,-2.083l12.917,0c1.25,0 2.083,0.833 2.083,2.083l0,45.833c0,1.25 -0.833,2.083 -2.083,2.083l-12.917,0c-0.833,0 -1.667,-1.25 -1.667,-2.083Z" style="fill:#fff;fill-rule:nonzero;"/></svg>