<?xml version="1.0" encoding="UTF-8"?>
<svg id="Layer_1" data-name="Layer 1" xmlns="http://www.w3.org/2000/svg" version="1.1" viewBox="0 0 44 44">
  <defs>
    <style>
      .cls-1 {
        fill: #15161c;
        stroke-width: 0px;
      }
    </style>
  </defs>
  <path class="cls-1" d="M10,13v17.9c0,1.7,1.3,3,3,3h17.9c.8,0,1.6-.4,2.1-.9.5-.5.9-1.2.9-2.1V13c0-1.7-1.3-3-3-3H13c-.9,0-1.6.4-2.1.9-.5.5-.9,1.3-.9,2.1ZM13.2,15.4c0-1.2.9-2.2,2.1-2.2s2.2,1,2.2,2.2-1,2.1-2.2,2.1-2.1-.9-2.1-2.1ZM19,30.2v-11c0-.3.3-.5.4-.5h3.1c.4,0,.4.5.4.8.9-.9,2-1.1,3.1-1.1,2.8,0,4.6,1.3,4.6,4.3v7.4c0,.3-.2.5-.4.5h-3.2c-.3,0-.4-.3-.4-.5v-6.7c0-1.1-.3-1.7-1.6-1.7s-2,1-2,2.5v6c0,.3-.3.5-.5.5h-3.1c-.2,0-.4-.3-.4-.5h0ZM13.3,30.2v-11c0-.3.3-.5.4-.5h3.1c.3,0,.5.2.5.5v11c0,.3-.2.5-.5.5h-3.1c-.2,0-.4-.3-.4-.5Z"/>
</svg>