<?xml version="1.0" encoding="UTF-8"?>
<svg id="Camada_2" xmlns="http://www.w3.org/2000/svg" version="1.1" viewBox="0 0 927.1 392.9">
  <!-- Generator: Adobe Illustrator 29.3.1, SVG Export Plug-In . SVG Version: 2.1.0 Build 151)  -->
  <defs>
    <style>
      .st0 {
        fill: #e33413;
      }

      .st1 {
        fill: #d9d9d9;
      }
    </style>
  </defs>
  <polygon class="st0" points="119.1 0 255.1 390.6 330.3 390.6 195.1 0 119.1 0"/>
  <polygon class="st0" points="366.4 0 290.4 0 426.4 390.6 501.6 390.6 366.4 0"/>
  <path class="st0" d="M80.2,281c-30.9,0-55.9,25-55.9,55.9s25,55.9,55.9,55.9,55.9-25,55.9-55.9-25-55.9-55.9-55.9h0Z"/>
  <path class="st1" d="M860.2,278.2c-30.9,0-55.9,25-55.9,55.9s25,55.9,55.9,55.9,55.9-25,55.9-55.9-25-55.9-55.9-55.9h0Z"/>
  <path class="st1" d="M646.4,389.6c-24,0-46.3-4.7-66.9-14.2-20.6-9.5-37.4-23.3-50.5-41.5l40.4-48c10.6,14.6,22.1,25.5,34.7,32.8,12.6,7.3,26.5,10.9,41.8,10.9,39.3,0,59-23.5,59-70.4V62.1h-115.2l-20.7-60h206.3v253.3c0,45.1-10.9,78.8-32.8,101-21.8,22.2-53.9,33.3-96.1,33.3Z"/>
</svg>