<?xml version="1.0" encoding="UTF-8"?>
<svg id="_2" data-name=" 2" xmlns="http://www.w3.org/2000/svg" version="1.1" viewBox="0 0 44 44">
  <defs>
    <style>
      .cls-1 {
        fill: #15161c;
        stroke-width: 0px;
      }
    </style>
  </defs>
  <path class="cls-1" d="M27.7,10h-11.5c-2.2,0-4,1.8-4,4v15.9c0,2.2,1.8,4,4,4h10.3l.4-.4,4.4-4.4.4-.4v-14.7c0-2.2-1.8-4-4-4ZM30.3,28.1h-2.3c-1.2,0-2.1.9-2.1,2.1v2.3h-9.6c-1.4,0-2.5-1.1-2.5-2.5v-15.9c0-1.4,1.1-2.5,2.5-2.5h11.5c1.4,0,2.5,1.1,2.5,2.5v14.1h0Z"/>
  <circle class="cls-1" cx="21.9" cy="18.8" r="3.1"/>
  <path class="cls-1" d="M27.9,27.6c-.5-2.8-3-5-5.9-5s-5.4,2.1-5.9,5h11.8Z"/>
</svg>