<?xml version="1.0" encoding="UTF-8" standalone="no"?><!DOCTYPE svg PUBLIC "-//W3C//DTD SVG 1.1//EN" "http://www.w3.org/Graphics/SVG/1.1/DTD/svg11.dtd"><svg width="100%" height="100%" viewBox="0 0 44 44" version="1.1" xmlns="http://www.w3.org/2000/svg" xmlns:xlink="http://www.w3.org/1999/xlink" xml:space="preserve" xmlns:serif="http://www.serif.com/" style="fill-rule:evenodd;clip-rule:evenodd;stroke-linejoin:round;stroke-miterlimit:2;"><path d="M27.7,10l-11.5,0c-2.2,0 -4,1.8 -4,4l0,15.9c0,2.2 1.8,4 4,4l10.3,0l5.2,-5.2l0,-14.7c0,-2.2 -1.8,-4 -4,-4Zm2.6,18.1l-2.3,0c-1.2,0 -2.1,0.9 -2.1,2.1l0,2.3l-9.6,0c-1.4,0 -2.5,-1.1 -2.5,-2.5l0,-15.9c0,-1.4 1.1,-2.5 2.5,-2.5l11.5,0c1.4,0 2.5,1.1 2.5,2.5l0,14.1l0,-0.1Z" style="fill:#fff;fill-rule:nonzero;"/><circle cx="21.9" cy="18.8" r="3.1" style="fill:#fff;"/><path d="M27.9,27.6c-0.5,-2.8 -3,-5 -5.9,-5c-2.9,0 -5.4,2.1 -5.9,5l11.8,0Z" style="fill:#fff;fill-rule:nonzero;"/></svg>