<?xml version="1.0" encoding="UTF-8" standalone="no"?><!DOCTYPE svg PUBLIC "-//W3C//DTD SVG 1.1//EN" "http://www.w3.org/Graphics/SVG/1.1/DTD/svg11.dtd"><svg width="100%" height="100%" viewBox="0 0 44 44" version="1.1" xmlns="http://www.w3.org/2000/svg" xmlns:xlink="http://www.w3.org/1999/xlink" xml:space="preserve" xmlns:serif="http://www.serif.com/" style="fill-rule:evenodd;clip-rule:evenodd;stroke-linejoin:round;stroke-miterlimit:2;"><path d="M30.5,13.6c-4.7,-4.7 -12.2,-4.7 -16.9,0c-2.2,2.2 -3.5,5.3 -3.5,8.4c0,2.1 0.5,4.1 1.6,5.9l-1.7,6.1l6.3,-1.7c1.7,0.9 3.7,1.5 5.7,1.4c6.5,0 11.9,-5.3 11.9,-11.8c0,-3.1 -1.3,-6.2 -3.5,-8.4l0.1,0.1Zm-8.4,18.3c-1.9,0 -3.8,-0.5 -5.4,-1.6l-3.8,1l1,-3.7c-1.1,-1.7 -1.7,-3.7 -1.8,-5.7c0,-5.5 4.5,-9.9 9.9,-9.9c5.5,0 9.9,4.4 10,9.9c0,5.5 -4.4,9.9 -9.9,10Z" style="fill:#fff;fill-rule:nonzero;"/><path d="M27.5,24.5c-0.7,-0.3 -1.3,-0.7 -2.1,-1c-0.2,-0.1 -0.5,-0.2 -0.6,0.1c-0.1,0.3 -0.8,1 -1,1.2c-0.1,0.2 -0.5,0.2 -0.6,0c-0.9,-0.3 -1.7,-0.9 -2.4,-1.5c-0.7,-0.6 -1.2,-1.3 -1.7,-2.1c-0.1,-0.2 0,-0.4 0,-0.5l0.5,-0.6c0.1,-0.1 0.2,-0.3 0.3,-0.5l0,-0.5c-0.1,-0.2 -0.7,-1.6 -0.9,-2.2c-0.3,-0.6 -0.5,-0.5 -0.7,-0.5l-0.6,0c-0.3,0 -0.6,0.1 -0.8,0.4c-0.7,0.6 -1.1,1.5 -1,2.5c0,1.1 0.5,2.2 1.2,3.1c0.2,0.2 2.1,3.2 5.1,4.5c0.5,0.3 1.1,0.5 1.7,0.6c0.6,0.2 1.3,0.3 1.9,0.1c0.6,0 1.8,-0.7 2,-1.4c0.2,-0.7 0.3,-1.3 0.2,-1.4c0,-0.1 -0.3,-0.3 -0.5,-0.3Z" style="fill:#fff;fill-rule:nonzero;"/></svg>