<?xml version="1.0" encoding="UTF-8"?>
<svg id="Layer_1" data-name="Layer 1" xmlns="http://www.w3.org/2000/svg" version="1.1" viewBox="0 0 44 44">
  <defs>
    <style>
      .cls-1 {
        fill: #15161c;
        stroke-width: 0px;
      }
    </style>
  </defs>
  <path class="cls-1" d="M30.5,13.6c-4.7-4.7-12.2-4.7-16.9,0-2.2,2.2-3.5,5.3-3.5,8.4,0,2.1.5,4.1,1.6,5.9l-1.7,6.1,6.3-1.7c1.7.9,3.7,1.5,5.7,1.4,6.5,0,11.9-5.3,11.9-11.8,0-3.1-1.3-6.2-3.5-8.4ZM22.1,31.9c-1.9,0-3.8-.5-5.4-1.6l-3.8,1,1-3.7c-1.1-1.7-1.7-3.7-1.8-5.7,0-5.5,4.5-9.9,9.9-9.9,5.5,0,9.9,4.4,10,9.9,0,5.5-4.4,9.9-9.9,10Z"/>
  <path class="cls-1" d="M27.5,24.5c-.7-.3-1.3-.7-2.1-1-.2-.1-.5-.2-.6.1s-.8,1-1,1.2c-.1.2-.5.2-.6,0-.9-.3-1.7-.9-2.4-1.5-.7-.6-1.2-1.3-1.7-2.1-.1-.2,0-.4,0-.5l.5-.6c.1-.1.2-.3.3-.5,0-.1,0-.3,0-.5-.1-.2-.7-1.6-.9-2.2-.3-.6-.5-.5-.7-.5h-.6c-.3,0-.6.1-.8.4-.7.6-1.1,1.5-1,2.5,0,1.1.5,2.2,1.2,3.1.2.2,2.1,3.2,5.1,4.5.5.3,1.1.5,1.7.6.6.2,1.3.3,1.9.1.6,0,1.8-.7,2-1.4.2-.7.3-1.3.2-1.4,0-.1-.3-.3-.5-.3Z"/>
</svg>